# xmcd
#
# Track frame offsets:
#	150
#	21484
#	35645
#	49444
#	77719
#	93263
#	120042
#	137712
#	149098
#	162959
#	179427
#	190179
#
# Disc length: 2800 seconds
# Revision: 0
# Processed by: cddbd v1.5.2PL0 Copyright (c) Steve Scherf et al.
# Submitted via: dBpowerAMP V12.0
#
DISCID=a70aee0c
DTITLE=Stacey Earle and Mark Stuart - Dedication
DYEAR=2012
DGENRE=Country
TTITLE0=Dedication
TTITLE1=Here Comes The Pain
TTITLE2=Here Comes The Rain
TTITLE3=Little Rock
TTITLE4=If You Change Your Mind
TTITLE5=The Flag
TTITLE6=Broken Heart For You
TTITLE7=Workin' On It
TTITLE8=I've Been Wrong, I've Been Right
TTITLE9=For A Long Time
TTITLE10=A Great Day To Fly
TTITLE11=Little Rock (Radio Version)
EXTD=
EXTT0=
EXTT1=
EXTT2=
EXTT3=
EXTT4=
EXTT5=
EXTT6=
EXTT7=
EXTT8=
EXTT9=
EXTT10=
EXTT11=
PLAYORDER=
